#!OML:ASF F:\twosubjects\two\Thursday\Session 1\justin.ASF
:FULLY-SPECIFIED
:DEGREES
394
root 7.86704 18.0329 -2.27691 -171.793 29.5564 182.68
lowerback -0.143683 3.03577 -11.3031
upperback -0.786617 4.23202 6.00489
thorax -2.04717 2.40508 12.8252
lowerneck -23.5599 -6.53175 -14.302
upperneck 24.9025 -1.82222 -3.65436
head 12.4809 -2.42203 0.64658
rclavicle -7.55382e-015 1.51076e-014
rhumerus 32.2186 8.26528 -73.6827
rradius 50.2049
rwrist -24.7578
rhand -56.2229 26.1524
rfingers 7.12502
rthumb -28.5492 -1.68795
lclavicle -7.55382e-015 1.51076e-014
lhumerus 38.2931 -11.0037 88.1799
lradius 41.4995
lwrist 2.43973
lhand -32.5252 49.7613
lfingers 7.12502
lthumb -5.75581 439.663
rfemur -18.6555 -6.6183 11.9119
rtibia 32.0906
rfoot -15.1269 -17.5053
rtoes -4.07149
lfemur -11.3911 7.11859 -22.2119
ltibia 22.6979
lfoot -15.5466 -2.78678
ltoes -3.67432
395
root 7.87198 18.04 -2.24591 -171.35 28.8539 182.696
lowerback -0.0773922 2.81666 -11.4755
upperback -0.920852 3.9332 6.06805
thorax -2.1544 2.27482 13.0136
lowerneck -23.7863 -6.62003 -14.3428
upperneck 24.6503 -2.00566 -3.45389
head 12.4306 -2.4827 0.691871
rclavicle -7.35503e-015 2.46493e-014
rhumerus 32.4724 8.1107 -73.4537
rradius 50.1237
rwrist -25.3362
rhand -56.679 26.7185
rfingers 7.12502
rthumb -28.9849 -1.04781
lclavicle -7.35503e-015 2.46493e-014
lhumerus 38.3539 -11.3861 88.0326
lradius 42.0404
lwrist 2.6671
lhand -32.7455 50.2094
lfingers 7.12502
lthumb -5.96851 440.105
rfemur -19.0307 -6.9091 12.1605
rtibia 32.1171
rfoot -15.0722 -17.7989
rtoes -3.81249
lfemur -12.0323 7.58524 -22.0696
ltibia 22.6336
lfoot -15.507 -3.92101
ltoes -4.4513
396
root 7.87035 18.0364 -2.26466 -171.593 29.0396 182.614
lowerback -0.0591371 2.85378 -11.5085
upperback -0.719469 3.97953 6.06901
thorax -1.96604 2.2713 13.0367
lowerneck -24.0889 -6.68524 -14.4596
upperneck 24.6248 -2.10914 -3.17312
head 12.485 -2.5136 0.790277
rclavicle 7.67309e-014 -7.95139e-016
rhumerus 32.6782 8.06494 -73.2698
rradius 50.1695
rwrist -25.8597
rhand -56.8708 27.2382
rfingers 7.12502
rthumb -29.1681 -0.496515
lclavicle 7.67309e-014 -7.95139e-016
lhumerus 38.3582 -11.5326 88.0212
lradius 42.565
lwrist 2.73738
lhand -32.8281 50.8322
lfingers 7.12502
lthumb -6.04829 440.726
rfemur -18.8122 -6.99336 11.9635
rtibia 32.1596
rfoot -15.1594 -17.4666
rtoes -3.67736
lfemur -11.6399 7.44644 -22.1912
ltibia 22.5615
lfoot -15.6502 -3.5098
ltoes -6.07471
397
root 7.87336 18.0332 -2.27212 -171.725 29.1925 182.444
lowerback -0.0608585 2.85616 -11.7816
upperback -0.619675 3.98171 6.10222
thorax -1.88171 2.26375 13.2451
lowerneck -24.4489 -6.7007 -14.5581
upperneck 24.8059 -2.08948 -2.95081
head 12.6278 -2.50185 0.883908
rclavicle 5.57591e-014 4.53229e-014
rhumerus 32.8949 7.9814 -73.2088
rradius 50.1783
rwrist -26.1893
rhand -56.3951 27.0292
rfingers 7.12502
rthumb -28.7137 -0.783427
lclavicle 5.57591e-014 4.53229e-014
lhumerus 38.122 -11.4341 88.3314
lradius 43.155
lwrist 2.49386
lhand -33.1565 51.4076
lfingers 7.12502
lthumb -6.36526 441.292
rfemur -18.805 -7.14474 11.7586
rtibia 32.2417
rfoot -15.2467 -17.1989
rtoes -4.04146
lfemur -11.4529 7.36315 -22.3618
ltibia 22.4795
lfoot -15.6705 -3.34628
ltoes -6.03451
398
root 7.87658 18.0271 -2.28768 -171.888 29.4343 182.36
lowerback -0.0564209 2.93224 -11.936
upperback -0.512774 4.08637 6.15173
thorax -1.81825 2.30882 13.394
lowerneck -24.2393 -6.70599 -15.0455
upperneck 24.4551 -2.23215 -2.23955
head 12.4648 -2.5071 1.21274
rclavicle 2.49475e-014 -2.70347e-014
rhumerus 32.9749 7.74886 -73.147
rradius 50.2971
rwrist -26.375
rhand -55.7951 26.4998
rfingers 7.12502
rthumb -28.1404 -1.40848
lclavicle 2.49475e-014 -2.70347e-014
lhumerus 37.7774 -11.4596 88.6855
lradius 43.8216
lwrist 2.30513
lhand -33.3535 51.7794
lfingers 7.12502
lthumb -6.55552 441.658
rfemur -18.7007 -7.0196 11.603
rtibia 32.3049
rfoot -15.2745 -17.0094
rtoes -4.55726
lfemur -11.1656 7.22289 -22.475
ltibia 22.3345
lfoot -15.546 -3.05978
ltoes -5.29972
399
root 7.87922 18.0173 -2.32995 -172.29 29.9779 182.307
lowerback -0.120213 3.08812 -11.9011
upperback -0.313698 4.30735 6.18669
thorax -1.63934 2.39581 13.4102
lowerneck -23.5822 -6.75053 -15.7381
upperneck 23.7471 -2.51352 -1.38303
head 12.0943 -2.5544 1.61084
rclavicle 1.1281e-013 3.02153e-014
rhumerus 32.8783 7.62638 -73.0411
rradius 50.5053
rwrist -26.2382
rhand -55.472 25.2899
rfingers 7.12502
rthumb -27.8316 -2.6688
lclavicle 1.1281e-013 3.02153e-014
lhumerus 37.4464 -11.6642 88.7113
lradius 44.6193
lwrist 2.42125
lhand -33.1441 52.1969
lfingers 7.12502
lthumb -6.3533 442.082
rfemur -18.3612 -6.76638 11.3283
rtibia 32.419
rfoot -15.1474 -16.4725
rtoes -5.05849
lfemur -10.5208 6.89401 -22.6191
ltibia 22.2797
lfoot -15.5325 -2.29387
ltoes -4.8209
400
root 7.8798 18.0123 -2.34798 -172.772 29.8835 182.32
lowerback 0.402872 3.07468 -11.7788
upperback -0.192772 4.24173 6.26518
thorax -1.78159 2.36675 13.4024
lowerneck -23.3982 -6.82374 -15.9407
upperneck 23.3449 -2.69644 -1.14605
head 11.92 -2.60917 1.70245
rclavicle -7.71285e-014 -5.1684e-014
rhumerus 32.8306 7.57093 -73.0783
rradius 50.6309
rwrist -26.0181
rhand -55.0579 23.3288
rfingers 7.12502
rthumb -27.4355 -4.6933
lclavicle -7.71285e-014 -5.1684e-014
lhumerus 37.1707 -11.7768 88.7015
lradius 45.451
lwrist 2.20626
lhand -32.7091 52.774
lfingers 7.12502
lthumb -5.93341 442.671
rfemur -17.813 -6.70046 11.1709
rtibia 32.5132
rfoot -15.1783 -16.1534
rtoes -4.72764
lfemur -9.92767 6.21532 -22.5924
ltibia 22.3211
lfoot -15.5912 -1.90202
ltoes -4.59044
401
root 7.89444 18.0236 -2.32558 -171.899 29.7108 182.58
lowerback 0.12953 2.96108 -11.8982
upperback -0.472526 4.12728 6.40151
thorax -1.91009 2.34486 13.6502
lowerneck -23.797 -6.86311 -15.8343
upperneck 23.226 -2.7363 -1.14974
head 11.946 -2.62161 1.66868
rclavicle -1.82882e-014 -7.15625e-015
rhumerus 32.792 7.349 -73.1062
rradius 50.7714
rwrist -26.1087
rhand -54.5037 22.3279
rfingers 7.12502
rthumb -26.9054 -5.77712
lclavicle -1.82882e-014 -7.15625e-015
lhumerus 36.9532 -11.8733 88.9008
lradius 46.0983
lwrist 1.67404
lhand -32.5901 53.26
lfingers 7.12502
lthumb -5.81851 443.16
rfemur -18.6643 -6.63487 11.6346
rtibia 32.6322
rfoot -15.3983 -16.1109
rtoes -3.37369
lfemur -10.9009 7.08185 -22.2386
ltibia 22.4363
lfoot -15.7264 -3.28353
ltoes -3.53677
402
root 7.90234 18.0276 -2.32331 -171.486 29.5135 182.977
lowerback 0.255521 2.93965 -11.6023
upperback -0.594894 4.103 6.53563
thorax -2.09284 2.35818 13.6156
lowerneck -24.2217 -7.06388 -15.7741
upperneck 23.4362 -2.8414 -1.44132
head 12.1162 -2.71238 1.5184
rclavicle -2.70347e-014 1.74931e-014
rhumerus 32.6049 7.07987 -72.8892
rradius 51.0449
rwrist -26.3348
rhand -54.3941 22.4666
rfingers 7.12502
rthumb -26.8005 -5.65449
lclavicle -2.70347e-014 1.74931e-014
lhumerus 36.6477 -12.1003 89.1546
lradius 46.6789
lwrist 1.14298
lhand -32.9279 53.4798
lfingers 7.12502
lthumb -6.14461 443.371
rfemur -18.9085 -6.71674 12.1048
rtibia 32.7616
rfoot -15.4017 -16.1127
rtoes -3.98882
lfemur -11.2356 7.24963 -21.7982
ltibia 22.608
lfoot -15.8219 -3.73019
ltoes -2.71068
